Coordinates
version=1
nRows=25
nColumns=23
inDegrees=yes

Units are S.I. units (second, meters, Newtons, ...)
If the header above contains a line with 'inDegrees', this indicates whether rotational values are in degrees (yes) or radians (no).

endheader
time	pelvis_tilt	pelvis_list	pelvis_rotation	pelvis_tx	pelvis_ty	pelvis_tz	hip_flexion_r	hip_adduction_r	hip_rotation_r	knee_angle_r	knee_angle_r_beta	ankle_angle_r	subtalar_angle_r	mtp_angle_r	hip_flexion_l	hip_adduction_l	hip_rotation_l	knee_angle_l	knee_angle_l_beta	ankle_angle_l	subtalar_angle_l	mtp_angle_l
      7.50000000	     -8.86217053	      4.68717419	     -0.62780271	      2.21909473	      0.98908625	      1.01415179	    -13.54271629	     -6.27942373	     -9.96097744	     34.47970221	      0.60178433	    -24.38262348	      2.84521530	      0.00000000	     33.97729021	      2.84447092	     -9.01705625	     23.27362152	      0.40620132	      6.72464714	      6.17180102	      0.00000000
      7.50666667	     -8.83192762	      4.75943176	     -0.38223725	      2.21944510	      0.98772980	      1.01344017	    -13.02572013	     -6.26345627	     -8.97633336	     37.27382615	      0.65055099	    -23.50430559	      2.24537661	      0.00000000	     32.77990171	      3.40614985	     -9.03986391	     19.60989839	      0.34225729	      7.36361570	      7.69660600	      0.00000000
      7.51333333	     -8.73627644	      4.90084664	     -0.22458858	      2.21970893	      0.98601700	      1.01286700	    -12.42345317	     -6.38299412	     -8.12934319	     40.28543584	      0.70311350	    -22.57823312	      1.72790512	      0.00000000	     31.55577523	      3.98139325	     -9.11153740	     16.36354853	      0.28559780	      7.82761163	      8.77360133	      0.00000000
      7.52000000	     -8.62971274	      5.12321896	      0.01514968	      2.21986979	      0.98387105	      1.01223086	    -11.72707407	     -6.60447820	     -7.54908964	     43.46309140	      0.75857405	    -21.63795457	      1.41669267	      0.00000000	     30.33895036	      4.72749245	     -8.68100005	     13.48003932	      0.23527107	      8.01910902	      8.96668232	      0.00000000
      7.52666667	     -8.49316617	      5.32779095	      0.16600743	      2.21984567	      0.98132118	      1.01184513	    -10.90720933	     -6.77454536	     -6.85672563	     46.79224916	      0.81667881	    -20.74764903	      0.59097238	      0.00000000	     29.39024658	      5.25005492	     -8.87977409	     11.58938245	      0.20227288	      8.22128240	      9.56882526	      0.00000000
      7.53333333	     -8.39197690	      5.62334969	      0.38980273	      2.21966831	      0.97832122	      1.01139112	     -9.93103201	     -7.11270087	     -6.48143433	     50.28941618	      0.87771589	    -19.87894376	     -0.06941526	      0.00000000	     28.58726954	      5.89253735	     -8.84342159	     10.25211485	      0.17893316	      8.10915831	      9.40549729	      0.00000000
      7.54000000	     -8.20476708	      5.99938107	      0.59529339	      2.21931555	      0.97508919	      1.01102495	     -8.94299783	     -7.52564233	     -6.13016994	     53.84904871	      0.93984320	    -19.22546382	     -1.14316255	      0.00000000	     27.91145139	      6.52128055	     -9.13045576	      9.70779629	      0.16943301	      7.82073229	      9.24570022	      0.00000000
      7.54666667	     -8.13416534	      6.42815968	      0.85533778	      2.21868714	      0.97131427	      1.01063020	     -7.68824643	     -8.06051859	     -5.95854883	     57.57731237	      1.00491368	    -18.52675157	     -2.16321983	      0.00000000	     27.54327999	      7.17503706	     -9.37844907	      9.86232768	      0.17213009	      7.26717730	      8.52292388	      0.00000000
      7.55333333	     -8.10773069	      6.89922702	      1.13626081	      2.21780860	      0.96718883	      1.01026545	     -6.28037212	     -8.70035462	     -5.89155118	     61.36889815	      1.07108933	    -17.93722492	     -3.39260886	      0.00000000	     27.39166057	      7.82584041	     -9.68709081	     10.67126725	      0.18624875	      6.54933173	      7.44489207	      0.00000000
      7.56000000	     -8.01308441	      7.45378552	      1.48759154	      2.21672593	      0.96279291	      1.00986010	     -4.88001291	     -9.40455482	     -5.84626820	     65.16146347	      1.13728208	    -17.41516621	     -4.81373127	      0.00000000	     27.36911934	      8.53617699	     -9.92795429	     12.21135989	      0.21312844	      5.76287087	      6.04739851	      0.00000000
      7.56666667	     -8.00900261	      8.02574658	      1.83561454	      2.21530616	      0.95799809	      1.00950910	     -3.25885666	    -10.19771211	     -5.81828835	     69.00772897	      1.20441208	    -16.93881565	     -6.36375678	      0.00000000	     27.58651672	      9.21637947	    -10.13396962	     14.30568153	      0.24968124	      5.03327234	      4.35204722	      0.00000000
      7.57333333	     -8.04776074	      8.56503859	      2.22744522	      2.21356640	      0.95293974	      1.00921935	     -1.48698108	    -10.95580902	     -5.76509226	     72.85483912	      1.27155682	    -16.45976128	     -7.94533127	      0.00000000	     27.97198946	      9.85724761	    -10.17437464	     16.90823405	      0.29510435	      4.55813880	      2.41809149	      0.00000000
      7.58000000	     -8.12064945	      9.11159190	      2.63709062	      2.21152787	      0.94763442	      1.00894422	      0.42145265	    -11.75364486	     -5.67226595	     76.68388564	      1.33838629	    -15.98155088	     -9.60270234	      0.00000000	     28.46580495	     10.51616362	    -10.03012384	     19.87041604	      0.34680418	      4.51615121	      0.38620370	      0.00000000
      7.58666667	     -8.25216325	      9.62513437	      3.07382698	      2.20914239	      0.94218930	      1.00868848	      2.49873929	    -12.51931130	     -5.49972957	     80.45587694	      1.40421996	    -15.46378064	    -11.23824643	      0.00000000	     29.04498296	     11.18089415	     -9.68757594	     23.05354149	      0.40236020	      4.98012500	     -1.58422965	      0.00000000
      7.59333333	     -8.38993229	     10.11508856	      3.53067644	      2.20652779	      0.93680739	      1.00844513	      4.66869022	    -13.26668795	     -5.26007301	     84.11729182	      1.46812370	    -14.90710884	    -12.78833453	      0.00000000	     29.57334330	     11.86998391	     -9.19011682	     26.27306226	      0.45855144	      5.95155421	     -3.32664433	      0.00000000
      7.60000000	     -8.53262457	     10.59603723	      3.93861607	      2.20367472	      0.93160025	      1.00829804	      6.96989994	    -13.98613399	     -4.85241533	     87.66850107	      1.53010399	    -14.29617736	    -14.16566585	      0.00000000	     29.99361782	     12.56155675	     -8.63368839	     29.37022817	      0.51260718	      7.40881783	     -4.81467482	      0.00000000
      7.60666667	     -8.63892842	     10.99572181	      4.40544249	      2.20078130	      0.92680876	      1.00816996	      9.27142358	    -14.58494362	     -4.41780450	     90.99080098	      1.58808907	    -13.70784883	    -15.40923750	      0.00000000	     30.19233213	     13.21663744	     -7.95287837	     32.24288329	      0.56274447	      9.22266380	     -5.88027979	      0.00000000
      7.61333333	     -8.72594519	     11.38072957	      4.74599641	      2.19781509	      0.92250986	      1.00821229	     11.68546498	    -15.10927185	     -3.74643599	     94.11941560	      1.64269369	    -13.03972176	    -16.36835576	      0.00000000	     30.14268112	     13.78639689	     -7.39055270	     34.73384731	      0.60622000	     11.21509888	     -6.61557619	      0.00000000
      7.62000000	     -8.71177066	     11.58074064	      5.20992106	      2.19500154	      0.91894140	      1.00814367	     13.95232668	    -15.39509791	     -3.19689274	     96.89565915	      1.69114828	    -12.42613410	    -17.17511404	      0.00000000	     29.72052317	     14.22889495	     -6.59752756	     36.86084167	      0.64334305	     13.40634385	     -6.89798201	      0.00000000
      7.62666667	     -8.79503133	     11.71679838	      5.45768053	      2.19220581	      0.91585293	      1.00831624	     16.49467282	    -15.50716853	     -2.33215189	     99.45224871	      1.73576919	    -11.70685374	    -17.70205144	      0.00000000	     29.16853975	     14.43974060	     -6.10374958	     38.56006325	      0.67300006	     15.57166264	     -6.76775835	      0.00000000
      7.63333333	     -8.36864662	     11.73145440	      5.72487349	      2.18996161	      0.91422940	      1.00841973	     18.33604885	    -15.42493359	     -1.67279444	    101.49431727	      1.77141001	    -11.06451261	    -18.08818709	      0.00000000	     27.69994372	     14.56016360	     -5.30234476	     39.68296864	      0.69259846	     17.59113439	     -6.78056043	      0.00000000
      7.64000000	     -8.73646088	     11.60800707	      5.82939136	      2.18751212	      0.91198111	      1.00866515	     21.28656092	    -15.11540519	     -0.64067500	    103.45553682	      1.80563975	    -10.29497944	    -18.02216231	      0.00000000	     27.03700613	     14.30344484	     -5.15441501	     40.68496043	      0.71008652	     19.75401819	     -5.63466048	      0.00000000
      7.64666667	     -8.65269092	     11.42752781	      5.81166443	      2.18558934	      0.91106547	      1.00892829	     23.63595335	    -14.67738391	      0.29044713	    104.93736342	      1.83150250	     -9.58356983	    -17.91396933	      0.00000000	     25.57977699	     13.93784436	     -4.93895951	     41.14966142	      0.71819708	     21.60182252	     -4.66780974	      0.00000000
      7.65333333	     -8.54959021	     11.12968503	      5.75009005	      2.18402445	      0.91089020	      1.00905826	     25.89094594	    -14.08825159	      1.12638358	    106.03384973	      1.85063980	     -8.84839537	    -17.57746022	      0.00000000	     23.87525860	     13.46123383	     -4.66358204	     41.19599218	      0.71900570	     23.21440113	     -3.70581547	      0.00000000
      7.66000000	     -8.45354400	     10.77494351	      5.63275641	      2.18285410	      0.91134220	      1.00910855	     28.06349285	    -13.44794443	      1.87027212	    106.76486030	      1.86339834	     -8.11941097	    -17.15851381	      0.00000000	     21.97778322	     12.91852930	     -4.40039884	     40.85780894	      0.71310329	     24.53488446	     -2.85027761	      0.00000000
